{
  "accessors": {
    "accessor_index_0": {
      "bufferView": "bufferView_1",
      "byteOffset": 0,
      "byteStride": 0,
      "componentType": 5123,
      "count": 3807,
      "type": "SCALAR",
      "min": [
        0
      ],
      "max": [
        854
      ]
    },
    "accessor_position": {
      "bufferView": "bufferView_0",
      "byteOffset": 0,
      "byteStride": 0,
      "componentType": 5123,
      "count": 855,
      "min": [
        0,
        0,
        0
      ],
      "max": [
        65535,
        65535,
        65535
      ],
      "type": "VEC3",
      "extensions": {
        "WEB3D_quantized_attributes": {
          "decodedMin": [
            -10.290580749511719,
            -21.88841438293457,
            -34.63030242919922
          ],
          "decodedMax": [
            12.571962356567383,
            23.73631477355957,
            -0.6425859928131104
          ],
          "decodeMatrix": [
            0.0003488600458698268,
            0,
            0,
            0,
            0,
            0.0006961887412297878,
            0,
            0,
            0,
            0,
            0.0005186193093215245,
            0,
            -10.290580749511719,
            -21.88841438293457,
            -34.63030242919922,
            1
          ]
        }
      }
    },
    "accessor_uv": {
      "bufferView": "bufferView_0",
      "byteOffset": 5130,
      "byteStride": 0,
      "componentType": 5123,
      "count": 855,
      "type": "VEC2",
      "min": [
        0,
        0
      ],
      "max": [
        65535,
        65535
      ],
      "extensions": {
        "WEB3D_quantized_attributes": {
          "decodedMin": [
            0.0047109997831285,
            0.005251999944448471
          ],
          "decodedMax": [
            0.9924700260162354,
            0.9916859865188599
          ],
          "decodeMatrix": [
            0.000015072236609950512,
            0,
            0,
            0,
            0.000015052017800784488,
            0,
            0.0047109997831285,
            0.005251999944448471,
            1
          ]
        }
      }
    },
    "accessor_normal_generated": {
      "bufferView": "bufferView_0",
      "byteOffset": 8550,
      "byteStride": 0,
      "componentType": 5121,
      "count": 855,
      "type": "VEC2",
      "min": [
        0,
        0
      ],
      "max": [
        255,
        255
      ]
    }
  },
  "asset": {
    "generator": "OBJ2GLTF",
    "premultipliedAlpha": true,
    "profile": {
      "api": "WebGL",
      "version": "1.0"
    },
    "version": "1.0"
  },
  "buffers": {
    "buffer_0": {
      "type": "arraybuffer",
      "byteLength": 17874,
      "uri": "data:application/octet-stream;base64,"
    }
  },
  "bufferViews": {
    "bufferView_0": {
      "buffer": "buffer_0",
      "byteLength": 10260,
      "byteOffset": 0,
      "target": 34962
    },
    "bufferView_1": {
      "buffer": "buffer_0",
      "byteLength": 7614,
      "byteOffset": 10260,
      "target": 34963
    }
  },
  "images": {
    "cat-texture": {
      "uri": "data:image/jpeg;base64,"
    }
  },
  "materials": {
    "material_cat-textured": {
      "name": "cat-textured",
      "extensions": {},
      "values": {
        "ambient": [
          0,
          0,
          0,
          1
        ],
        "diffuse": "texture_cat-texture",
        "emission": [
          0,
          0,
          0,
          1
        ],
        "specular": [
          0,
          0,
          0,
          1
        ],
        "shininess": 0,
        "transparency": 1
      },
      "technique": "technique0"
    }
  },
  "meshes": {
    "mesh_cat": {
      "name": "cat",
      "primitives": [
        {
          "attributes": {
            "POSITION": "accessor_position",
            "TEXCOORD_0": "accessor_uv",
            "NORMAL": "accessor_normal_generated"
          },
          "indices": "accessor_index_0",
          "material": "material_cat-textured",
          "mode": 4
        }
      ]
    }
  },
  "nodes": {
    "rootNode": {
      "children": [],
      "meshes": [
        "mesh_cat"
      ],
      "matrix": [
        1,
        0,
        0,
        0,
        0,
        1,
        0,
        0,
        0,
        0,
        1,
        0,
        0,
        0,
        0,
        1
      ]
    }
  },
  "samplers": {
    "sampler_0": {
      "magFilter": 9729,
      "minFilter": 9986,
      "wrapS": 10497,
      "wrapT": 10497
    }
  },
  "scene": "scene_cat",
  "scenes": {
    "scene_cat": {
      "nodes": [
        "rootNode"
      ]
    }
  },
  "textures": {
    "texture_cat-texture": {
      "format": 6407,
      "internalFormat": 6407,
      "sampler": "sampler_0",
      "source": "cat-texture",
      "target": 3553,
      "type": 5121
    }
  },
  "extensionsUsed": [
    "WEB3D_quantized_attributes"
  ],
  "animations": {},
  "cameras": {},
  "techniques": {
    "technique0": {
      "attributes": {
        "a_position": "position",
        "a_normal": "normal",
        "a_texcoord_0": "texcoord_0"
      },
      "parameters": {
        "modelViewMatrix": {
          "semantic": "MODELVIEW",
          "type": 35676
        },
        "projectionMatrix": {
          "semantic": "PROJECTION",
          "type": 35676
        },
        "normalMatrix": {
          "semantic": "MODELVIEWINVERSETRANSPOSE",
          "type": 35675
        },
        "ambient": {
          "type": 35666
        },
        "diffuse": {
          "type": 35678
        },
        "emission": {
          "type": 35666
        },
        "specular": {
          "type": 35666
        },
        "shininess": {
          "type": 5126
        },
        "transparency": {
          "type": 5126
        },
        "position": {
          "semantic": "POSITION",
          "type": 35665
        },
        "normal": {
          "semantic": "NORMAL",
          "type": 35667
        },
        "texcoord_0": {
          "semantic": "TEXCOORD_0",
          "type": 35664
        }
      },
      "program": "program0",
      "states": {
        "enable": [
          2884,
          2929
        ]
      },
      "uniforms": {
        "u_modelViewMatrix": "modelViewMatrix",
        "u_projectionMatrix": "projectionMatrix",
        "u_normalMatrix": "normalMatrix",
        "u_ambient": "ambient",
        "u_diffuse": "diffuse",
        "u_emission": "emission",
        "u_specular": "specular",
        "u_shininess": "shininess",
        "u_transparency": "transparency"
      }
    }
  },
  "programs": {
    "program0": {
      "attributes": [
        "a_position",
        "a_normal",
        "a_texcoord_0"
      ],
      "fragmentShader": "fragmentShader0",
      "vertexShader": "vertexShader0"
    }
  },
  "shaders": {
    "vertexShader0": {
      "type": 35633,
      "uri": "data:text/plain;base64,"
    },
    "fragmentShader0": {
      "type": 35632,
      "uri": "data:text/plain;base64,"
    }
  },
  "skins": {},
  "extensions": {}
}
